<?xml version="1.0" encoding="UTF-8"?>
<svg id="Layer_1" data-name="Layer 1" xmlns="http://www.w3.org/2000/svg" xmlns:xlink="http://www.w3.org/1999/xlink" viewBox="0 0 589.53 462.99">
  <defs>
    <style>
      .cls-1 {
        fill: url(#linear-gradient);
      }

      .cls-1, .cls-2, .cls-3, .cls-4, .cls-5, .cls-6, .cls-7, .cls-8, .cls-9, .cls-10, .cls-11, .cls-12 {
        fill-rule: evenodd;
      }

      .cls-13, .cls-14, .cls-4 {
        fill: #fff;
      }

      .cls-15, .cls-3 {
        fill: #33445f;
      }

      .cls-16, .cls-2 {
        fill: #a6ce37;
      }

      .cls-17 {
        fill: #ccc;
      }

      .cls-18, .cls-14 {
        font-family: Barlow-SemiBold, 'Barlow SemiBold';
        font-size: 13px;
        font-weight: 600;
      }

      .cls-19 {
        stroke: #a6ce37;
      }

      .cls-19, .cls-20, .cls-21, .cls-22 {
        fill: none;
        stroke-width: 22px;
      }

      .cls-20 {
        stroke: #33445f;
      }

      .cls-21 {
        stroke: #000;
      }

      .cls-22 {
        stroke: #fff;
      }

      .cls-5 {
        fill: url(#linear-gradient-8);
      }

      .cls-6 {
        fill: url(#linear-gradient-3);
      }

      .cls-7 {
        fill: url(#linear-gradient-2);
      }

      .cls-8 {
        fill: url(#linear-gradient-4);
      }

      .cls-9 {
        fill: url(#linear-gradient-6);
      }

      .cls-10 {
        fill: url(#linear-gradient-7);
      }

      .cls-11 {
        fill: url(#linear-gradient-5);
      }
    </style>
    <linearGradient id="linear-gradient" x1="325.82" y1="123.21" x2="358.65" y2="90.38" gradientUnits="userSpaceOnUse">
      <stop offset="0" stop-color="#33445f" stop-opacity="0"/>
      <stop offset=".13" stop-color="#33445f" stop-opacity=".3"/>
      <stop offset=".29" stop-color="#33445f" stop-opacity=".61"/>
      <stop offset=".45" stop-color="#33445f" stop-opacity=".83"/>
      <stop offset=".6" stop-color="#33445f" stop-opacity=".96"/>
      <stop offset=".75" stop-color="#33445f"/>
    </linearGradient>
    <linearGradient id="linear-gradient-2" x1="406.57" y1="201.04" x2="438.82" y2="168.79" xlink:href="#linear-gradient"/>
    <linearGradient id="linear-gradient-3" x1="46.17" y1="350.16" x2="78.99" y2="317.33" gradientUnits="userSpaceOnUse">
      <stop offset="0" stop-color="#fff" stop-opacity="0"/>
      <stop offset=".08" stop-color="#fff" stop-opacity=".2"/>
      <stop offset=".18" stop-color="#fff" stop-opacity=".41"/>
      <stop offset=".28" stop-color="#fff" stop-opacity=".59"/>
      <stop offset=".38" stop-color="#fff" stop-opacity=".74"/>
      <stop offset=".47" stop-color="#fff" stop-opacity=".85"/>
      <stop offset=".57" stop-color="#fff" stop-opacity=".93"/>
      <stop offset=".66" stop-color="#fff" stop-opacity=".98"/>
      <stop offset=".75" stop-color="#fff"/>
    </linearGradient>
    <linearGradient id="linear-gradient-4" x1="126.91" y1="427.99" x2="159.16" y2="395.73" gradientUnits="userSpaceOnUse">
      <stop offset="0" stop-color="#fff" stop-opacity="0"/>
      <stop offset=".08" stop-color="#fff" stop-opacity=".2"/>
      <stop offset=".18" stop-color="#fff" stop-opacity=".41"/>
      <stop offset=".28" stop-color="#fff" stop-opacity=".59"/>
      <stop offset=".38" stop-color="#fff" stop-opacity=".74"/>
      <stop offset=".47" stop-color="#fff" stop-opacity=".85"/>
      <stop offset=".57" stop-color="#fff" stop-opacity=".93"/>
      <stop offset=".66" stop-color="#fff" stop-opacity=".98"/>
      <stop offset=".75" stop-color="#fff"/>
    </linearGradient>
    <linearGradient id="linear-gradient-5" x1="325.82" y1="351.45" x2="358.65" y2="318.62" gradientUnits="userSpaceOnUse">
      <stop offset="0" stop-color="#a6ce37" stop-opacity="0"/>
      <stop offset="0" stop-color="#a6ce37" stop-opacity=".01"/>
      <stop offset=".11" stop-color="#a6ce37" stop-opacity=".27"/>
      <stop offset=".22" stop-color="#a6ce37" stop-opacity=".5"/>
      <stop offset=".33" stop-color="#a6ce37" stop-opacity=".68"/>
      <stop offset=".44" stop-color="#a6ce37" stop-opacity=".82"/>
      <stop offset=".55" stop-color="#a6ce37" stop-opacity=".92"/>
      <stop offset=".65" stop-color="#a6ce37" stop-opacity=".98"/>
      <stop offset=".75" stop-color="#a6ce37"/>
    </linearGradient>
    <linearGradient id="linear-gradient-6" x1="406.57" y1="429.28" x2="438.82" y2="397.03" xlink:href="#linear-gradient-5"/>
    <linearGradient id="linear-gradient-7" x1="46.17" y1="124.28" x2="78.99" y2="91.45" gradientUnits="userSpaceOnUse">
      <stop offset="0" stop-color="#000" stop-opacity="0"/>
      <stop offset=".75" stop-color="#000"/>
    </linearGradient>
    <linearGradient id="linear-gradient-8" x1="126.91" y1="202.11" x2="159.16" y2="169.85" xlink:href="#linear-gradient-7"/>
  </defs>
  <rect class="cls-17" x="17.66" y="233.43" width="267" height="215"/>
  <path class="cls-1" d="m345.48,130.13c-1.4-1.73-2.79-3.48-4.14-5.25-4.7-6.19-9.14-12.6-12.71-19.25-1.83-3.3-3.3-6.71-4.35-10-1.06-3.2-.8-6.56-.36-6.68-.12-.3,2.86-.8,6.07,0,3.27.89,6.68,2.05,10.05,3.73,3.57,1.68,7.09,3.62,10.55,5.71,1.71-3.53,3.78-6.85,6.16-9.92-3.91-2.18-7.94-4.22-12.16-6.03-3.82-1.72-7.99-3.05-12.42-4.04-4.24-.47-10.62-2-16.26,4-4.34,6.6-2.14,12.05-1.08,16.22,1.5,4.23,3.39,8.07,5.52,11.64,4.22,7.19,9.11,13.7,14.24,19.98,5.26,6.4,10.83,12.49,16.61,18.34-2.9-5.66-4.88-11.88-5.72-18.45Z"/>
  <path class="cls-7" d="m436.77,166.73c-.49.4-.99.79-1.5,1.18,3.68,5.07,7.14,10.29,10.08,15.75,3.35,6.47,7.62,15.25,4.37,20.54-4.54,3.98-13.67.17-20.19-2.77-7.02-3.3-13.71-7.45-20.18-11.87-4.92-3.38-9.72-6.95-14.39-10.67-4.88-.55-9.57-1.73-13.99-3.45,8.18,6.58,16.65,12.8,25.54,18.44,6.8,4.28,13.8,8.29,21.28,11.49,3.7,1.67,7.65,2.9,11.72,3.82,3.92.55,9.21,1.33,12.89-2.8,4.62-9.49-1.5-17.1-4.78-23.99-3.24-5.51-6.94-10.68-10.85-15.67Z"/>
  <path class="cls-15" d="m429.49,105.26c-2.39-3.83-5.53-7.14-9.21-9.72-11.68,9.38-23.08,19.2-34.17,29.47l12.52,11.95c9.86-10.88,20.16-21.46,30.87-31.7Z"/>
  <path class="cls-3" d="m439.15,81.11c2.79,2.53,5.33,5.33,7.57,8.37,31.65-27.74,66.41-52.51,103.45-73.14-39.08,17.52-76.22,39.23-111.02,64.77Z"/>
  <path class="cls-15" d="m420.62,150.01c.29-.21.58-.41.86-.63-6.73-7.09-13.82-13.84-21.1-20.35,7.01,6.74,13.81,13.7,20.24,20.98Z"/>
  <path class="cls-15" d="m376.25,101.09c-2.75,3.17-4.91,6.85-6.32,10.9,8.97,6.87,17.54,14.35,25.79,22.12l4.66-5.08,4.67-5.09c-9.21-8.07-18.74-15.78-28.8-22.85Z"/>
  <path class="cls-20" d="m446.11,122.9c0,24.72-20.04,44.76-44.76,44.76s-44.75-20.04-44.75-44.76,20.04-44.75,44.75-44.75,44.76,20.04,44.76,44.75Z"/>
  <text class="cls-14" transform="translate(368.96 147.22) rotate(-121.35)"><tspan x="0" y="0">C</tspan></text>
  <text class="cls-14" transform="translate(364.86 140.47) rotate(-110.33)"><tspan x="0" y="0">E</tspan></text>
  <text class="cls-14" transform="translate(362.17 133.28) rotate(-99.14)"><tspan x="0" y="0">O</tspan></text>
  <text class="cls-14" transform="translate(360.91 125.3) rotate(-87.87)"><tspan x="0" y="0">S</tspan></text>
  <text class="cls-14" transform="translate(361.37 117.54) rotate(-80.46)"><tspan x="0" y="0"> </tspan></text>
  <text class="cls-14" transform="translate(361.63 114.83) rotate(-72.56)"><tspan x="0" y="0">A</tspan></text>
  <text class="cls-14" transform="translate(364.12 106.84) rotate(-60.46)"><tspan x="0" y="0">N</tspan></text>
  <text class="cls-14" transform="translate(368.39 99.32) rotate(-48.33)"><tspan x="0" y="0">A</tspan></text>
  <text class="cls-14" transform="translate(374.02 93.07) rotate(-37.12)"><tspan x="0" y="0">L</tspan></text>
  <text class="cls-14" transform="translate(379.52 88.84) rotate(-27.08)"><tspan x="0" y="0">Y</tspan></text>
  <text class="cls-14" transform="translate(386.16 85.42) rotate(-16.57)"><tspan x="0" y="0">S</tspan></text>
  <text class="cls-14" transform="translate(393.64 83.35) rotate(-8.52)"><tspan x="0" y="0">I</tspan></text>
  <text class="cls-14" transform="translate(397.1 82.69) rotate(-.42)"><tspan x="0" y="0">S</tspan></text>
  <text class="cls-14" transform="translate(404.89 82.8) rotate(7.05)"><tspan x="0" y="0"> </tspan></text>
  <text class="cls-14" transform="translate(407.59 82.97) rotate(14.58)"><tspan x="0" y="0">R</tspan></text>
  <text class="cls-14" transform="translate(415.31 84.98) rotate(25.71)"><tspan x="0" y="0">E</tspan></text>
  <text class="cls-14" transform="translate(422.24 88.28) rotate(37.19)"><tspan x="0" y="0">A</tspan></text>
  <text class="cls-14" transform="translate(428.91 93.36) rotate(48.82)"><tspan x="0" y="0">D</tspan></text>
  <text class="cls-14" transform="translate(433.96 99.09) rotate(59.42)"><tspan x="0" y="0">Y</tspan></text>
  <text class="cls-14" transform="translate(437.81 105.96) rotate(66.91)"><tspan x="0" y="0"> </tspan></text>
  <text class="cls-14" transform="translate(439.04 108.38) rotate(74.6)"><tspan x="0" y="0">D</tspan></text>
  <text class="cls-14" transform="translate(441.11 115.7) rotate(85.74)"><tspan x="0" y="0">A</tspan></text>
  <text class="cls-14" transform="translate(441.71 123.11) rotate(95.7)"><tspan x="0" y="0">T</tspan></text>
  <text class="cls-14" transform="translate(441.15 129.86) rotate(105.81)"><tspan x="0" y="0">A</tspan></text>
  <path class="cls-6" d="m65.82,357.08c-1.4-1.73-2.79-3.48-4.14-5.25-4.7-6.19-9.14-12.6-12.71-19.25-1.83-3.3-3.3-6.71-4.35-10-1.06-3.2-.8-6.56-.36-6.68-.12-.3,2.86-.8,6.07,0,3.27.89,6.68,2.05,10.05,3.73,3.57,1.68,7.09,3.62,10.55,5.71,1.71-3.53,3.78-6.85,6.16-9.92-3.91-2.18-7.94-4.22-12.16-6.03-3.82-1.72-7.99-3.05-12.42-4.04-4.24-.47-10.62-2-16.26,4-4.34,6.6-2.14,12.05-1.08,16.22,1.5,4.23,3.39,8.07,5.52,11.64,4.22,7.19,9.11,13.7,14.24,19.98,5.26,6.4,10.83,12.49,16.61,18.34-2.9-5.66-4.88-11.88-5.72-18.45Z"/>
  <path class="cls-8" d="m157.11,393.68c-.49.4-.99.79-1.5,1.18,3.68,5.07,7.14,10.29,10.08,15.75,3.35,6.47,7.62,15.25,4.37,20.54-4.54,3.98-13.67.17-20.19-2.77-7.02-3.3-13.71-7.45-20.18-11.87-4.92-3.38-9.72-6.95-14.39-10.67-4.88-.55-9.57-1.73-13.99-3.45,8.18,6.58,16.65,12.8,25.54,18.44,6.8,4.28,13.8,8.29,21.28,11.49,3.7,1.67,7.65,2.9,11.72,3.82,3.92.55,9.21,1.33,12.89-2.8,4.62-9.49-1.5-17.1-4.78-23.99-3.24-5.51-6.94-10.68-10.85-15.67Z"/>
  <path class="cls-13" d="m149.83,332.2c-2.39-3.83-5.53-7.14-9.21-9.72-11.68,9.38-23.08,19.2-34.17,29.47l12.52,11.95c9.86-10.88,20.16-21.46,30.87-31.7Z"/>
  <path class="cls-4" d="m159.5,308.05c2.79,2.53,5.33,5.33,7.57,8.37,31.65-27.74,66.41-52.51,103.45-73.14-39.08,17.52-76.22,39.23-111.02,64.77Z"/>
  <path class="cls-13" d="m140.96,376.95c.29-.21.58-.41.86-.63-6.73-7.09-13.82-13.84-21.1-20.35,7.01,6.74,13.81,13.7,20.24,20.98Z"/>
  <path class="cls-13" d="m96.6,328.04c-2.75,3.17-4.91,6.85-6.32,10.9,8.97,6.87,17.54,14.35,25.79,22.12l4.66-5.08,4.67-5.09c-9.21-8.07-18.74-15.78-28.8-22.85Z"/>
  <path class="cls-22" d="m166.45,349.85c0,24.72-20.04,44.76-44.76,44.76s-44.75-20.04-44.75-44.76,20.04-44.75,44.75-44.75,44.76,20.04,44.76,44.75Z"/>
  <text class="cls-18" transform="translate(89.31 374.17) rotate(-121.35)"><tspan x="0" y="0">C</tspan></text>
  <text class="cls-18" transform="translate(85.2 367.42) rotate(-110.33)"><tspan x="0" y="0">E</tspan></text>
  <text class="cls-18" transform="translate(82.52 360.23) rotate(-99.14)"><tspan x="0" y="0">O</tspan></text>
  <text class="cls-18" transform="translate(81.25 352.25) rotate(-87.87)"><tspan x="0" y="0">S</tspan></text>
  <text class="cls-18" transform="translate(81.71 344.49) rotate(-80.46)"><tspan x="0" y="0"> </tspan></text>
  <text class="cls-18" transform="translate(81.98 341.77) rotate(-72.56)"><tspan x="0" y="0">A</tspan></text>
  <text class="cls-18" transform="translate(84.46 333.79) rotate(-60.46)"><tspan x="0" y="0">N</tspan></text>
  <text class="cls-18" transform="translate(88.73 326.27) rotate(-48.33)"><tspan x="0" y="0">A</tspan></text>
  <text class="cls-18" transform="translate(94.37 320.02) rotate(-37.12)"><tspan x="0" y="0">L</tspan></text>
  <text class="cls-18" transform="translate(99.86 315.78) rotate(-27.08)"><tspan x="0" y="0">Y</tspan></text>
  <text class="cls-18" transform="translate(106.5 312.36) rotate(-16.57)"><tspan x="0" y="0">S</tspan></text>
  <text class="cls-18" transform="translate(113.98 310.3) rotate(-8.52)"><tspan x="0" y="0">I</tspan></text>
  <text class="cls-18" transform="translate(117.45 309.63) rotate(-.42)"><tspan x="0" y="0">S</tspan></text>
  <text class="cls-18" transform="translate(125.24 309.75) rotate(7.05)"><tspan x="0" y="0"> </tspan></text>
  <text class="cls-18" transform="translate(127.93 309.91) rotate(14.58)"><tspan x="0" y="0">R</tspan></text>
  <text class="cls-18" transform="translate(135.65 311.93) rotate(25.71)"><tspan x="0" y="0">E</tspan></text>
  <text class="cls-18" transform="translate(142.58 315.23) rotate(37.19)"><tspan x="0" y="0">A</tspan></text>
  <text class="cls-18" transform="translate(149.25 320.31) rotate(48.82)"><tspan x="0" y="0">D</tspan></text>
  <text class="cls-18" transform="translate(154.3 326.04) rotate(59.42)"><tspan x="0" y="0">Y</tspan></text>
  <text class="cls-18" transform="translate(158.16 332.91) rotate(66.91)"><tspan x="0" y="0"> </tspan></text>
  <text class="cls-18" transform="translate(159.38 335.33) rotate(74.6)"><tspan x="0" y="0">D</tspan></text>
  <text class="cls-18" transform="translate(161.46 342.65) rotate(85.74)"><tspan x="0" y="0">A</tspan></text>
  <text class="cls-18" transform="translate(162.06 350.06) rotate(95.7)"><tspan x="0" y="0">T</tspan></text>
  <text class="cls-18" transform="translate(161.49 356.81) rotate(105.81)"><tspan x="0" y="0">A</tspan></text>
  <path class="cls-11" d="m345.48,358.37c-1.4-1.73-2.79-3.48-4.14-5.25-4.7-6.19-9.14-12.6-12.71-19.25-1.83-3.3-3.3-6.71-4.35-10-1.06-3.2-.8-6.56-.36-6.68-.12-.3,2.86-.8,6.07,0,3.27.89,6.68,2.05,10.05,3.73,3.57,1.68,7.09,3.62,10.55,5.71,1.71-3.53,3.78-6.85,6.16-9.92-3.91-2.18-7.94-4.22-12.16-6.03-3.82-1.72-7.99-3.05-12.42-4.04-4.24-.47-10.62-2-16.26,4-4.34,6.6-2.14,12.05-1.08,16.22,1.5,4.23,3.39,8.07,5.52,11.64,4.22,7.19,9.11,13.7,14.24,19.98,5.26,6.4,10.83,12.49,16.61,18.34-2.9-5.66-4.88-11.88-5.72-18.45Z"/>
  <path class="cls-9" d="m436.77,394.97c-.49.4-.99.79-1.5,1.18,3.68,5.07,7.14,10.29,10.08,15.75,3.35,6.47,7.62,15.25,4.37,20.54-4.54,3.98-13.67.17-20.19-2.77-7.02-3.3-13.71-7.45-20.18-11.87-4.92-3.38-9.72-6.95-14.39-10.68-4.88-.55-9.57-1.73-13.99-3.45,8.18,6.58,16.65,12.8,25.54,18.44,6.8,4.28,13.8,8.29,21.28,11.49,3.7,1.67,7.65,2.9,11.72,3.82,3.92.55,9.21,1.34,12.89-2.8,4.62-9.49-1.5-17.1-4.78-23.99-3.24-5.51-6.94-10.68-10.85-15.66Z"/>
  <path class="cls-16" d="m429.49,333.5c-2.39-3.83-5.53-7.14-9.21-9.72-11.68,9.38-23.08,19.2-34.17,29.47l12.52,11.95c9.86-10.88,20.16-21.46,30.87-31.7Z"/>
  <path class="cls-2" d="m439.15,309.35c2.79,2.53,5.33,5.33,7.57,8.37,31.65-27.74,66.41-52.51,103.45-73.14-39.08,17.52-76.22,39.23-111.02,64.77Z"/>
  <path class="cls-16" d="m420.62,378.25c.29-.21.58-.41.86-.63-6.73-7.09-13.82-13.84-21.1-20.35,7.01,6.74,13.81,13.7,20.24,20.98Z"/>
  <path class="cls-16" d="m376.25,329.33c-2.75,3.17-4.91,6.85-6.32,10.9,8.97,6.87,17.54,14.35,25.79,22.12l4.66-5.08,4.67-5.09c-9.21-8.07-18.74-15.78-28.8-22.85Z"/>
  <path class="cls-19" d="m446.11,351.14c0,24.72-20.04,44.76-44.76,44.76s-44.75-20.04-44.75-44.76,20.04-44.75,44.75-44.75,44.76,20.03,44.76,44.75Z"/>
  <text class="cls-14" transform="translate(368.96 375.46) rotate(-121.35)"><tspan x="0" y="0">C</tspan></text>
  <text class="cls-14" transform="translate(364.86 368.71) rotate(-110.33)"><tspan x="0" y="0">E</tspan></text>
  <text class="cls-14" transform="translate(362.17 361.52) rotate(-99.14)"><tspan x="0" y="0">O</tspan></text>
  <text class="cls-14" transform="translate(360.91 353.54) rotate(-87.87)"><tspan x="0" y="0">S</tspan></text>
  <text class="cls-14" transform="translate(361.37 345.79) rotate(-80.46)"><tspan x="0" y="0"> </tspan></text>
  <text class="cls-14" transform="translate(361.63 343.07) rotate(-72.56)"><tspan x="0" y="0">A</tspan></text>
  <text class="cls-14" transform="translate(364.12 335.08) rotate(-60.46)"><tspan x="0" y="0">N</tspan></text>
  <text class="cls-14" transform="translate(368.39 327.56) rotate(-48.33)"><tspan x="0" y="0">A</tspan></text>
  <text class="cls-14" transform="translate(374.02 321.31) rotate(-37.12)"><tspan x="0" y="0">L</tspan></text>
  <text class="cls-14" transform="translate(379.52 317.08) rotate(-27.08)"><tspan x="0" y="0">Y</tspan></text>
  <text class="cls-14" transform="translate(386.16 313.66) rotate(-16.57)"><tspan x="0" y="0">S</tspan></text>
  <text class="cls-14" transform="translate(393.64 311.59) rotate(-8.52)"><tspan x="0" y="0">I</tspan></text>
  <text class="cls-14" transform="translate(397.1 310.93) rotate(-.42)"><tspan x="0" y="0">S</tspan></text>
  <text class="cls-14" transform="translate(404.89 311.04) rotate(7.05)"><tspan x="0" y="0"> </tspan></text>
  <text class="cls-14" transform="translate(407.59 311.21) rotate(14.58)"><tspan x="0" y="0">R</tspan></text>
  <text class="cls-14" transform="translate(415.31 313.22) rotate(25.71)"><tspan x="0" y="0">E</tspan></text>
  <text class="cls-14" transform="translate(422.24 316.52) rotate(37.19)"><tspan x="0" y="0">A</tspan></text>
  <text class="cls-14" transform="translate(428.91 321.6) rotate(48.82)"><tspan x="0" y="0">D</tspan></text>
  <text class="cls-14" transform="translate(433.96 327.33) rotate(59.42)"><tspan x="0" y="0">Y</tspan></text>
  <text class="cls-14" transform="translate(437.81 334.2) rotate(66.91)"><tspan x="0" y="0"> </tspan></text>
  <text class="cls-14" transform="translate(439.04 336.62) rotate(74.6)"><tspan x="0" y="0">D</tspan></text>
  <text class="cls-14" transform="translate(441.11 343.94) rotate(85.74)"><tspan x="0" y="0">A</tspan></text>
  <text class="cls-14" transform="translate(441.71 351.35) rotate(95.7)"><tspan x="0" y="0">T</tspan></text>
  <text class="cls-14" transform="translate(441.15 358.1) rotate(105.81)"><tspan x="0" y="0">A</tspan></text>
  <path class="cls-10" d="m65.82,131.2c-1.4-1.73-2.79-3.48-4.14-5.25-4.7-6.19-9.14-12.6-12.71-19.25-1.83-3.3-3.3-6.71-4.35-10-1.06-3.2-.8-6.56-.36-6.68-.12-.3,2.86-.8,6.07,0,3.27.89,6.68,2.05,10.05,3.73,3.57,1.68,7.09,3.62,10.55,5.71,1.71-3.53,3.78-6.85,6.16-9.92-3.91-2.18-7.94-4.22-12.16-6.03-3.82-1.72-7.99-3.05-12.42-4.04-4.24-.47-10.62-2-16.26,4-4.34,6.6-2.14,12.05-1.08,16.22,1.5,4.23,3.39,8.07,5.52,11.64,4.22,7.19,9.11,13.7,14.24,19.98,5.26,6.4,10.83,12.49,16.61,18.34-2.9-5.66-4.88-11.88-5.72-18.45Z"/>
  <path class="cls-5" d="m157.11,167.8c-.49.4-.99.79-1.5,1.18,3.68,5.07,7.14,10.29,10.08,15.75,3.35,6.47,7.62,15.25,4.37,20.54-4.54,3.98-13.67.17-20.19-2.77-7.02-3.3-13.71-7.45-20.18-11.87-4.92-3.38-9.72-6.95-14.39-10.67-4.88-.55-9.57-1.73-13.99-3.45,8.18,6.58,16.65,12.8,25.54,18.44,6.8,4.28,13.8,8.29,21.28,11.49,3.7,1.67,7.65,2.9,11.72,3.82,3.92.55,9.21,1.33,12.89-2.8,4.62-9.49-1.5-17.1-4.78-23.99-3.24-5.51-6.94-10.68-10.85-15.67Z"/>
  <path d="m149.83,106.32c-2.39-3.83-5.53-7.14-9.21-9.72-11.68,9.38-23.08,19.2-34.17,29.47l12.52,11.95c9.86-10.88,20.16-21.46,30.87-31.7Z"/>
  <path class="cls-12" d="m159.5,82.17c2.79,2.53,5.33,5.33,7.57,8.37,31.65-27.74,66.41-52.51,103.45-73.14-39.08,17.52-76.22,39.23-111.02,64.77Z"/>
  <path d="m140.96,151.07c.29-.21.58-.41.86-.63-6.73-7.09-13.82-13.84-21.1-20.35,7.01,6.74,13.81,13.7,20.24,20.98Z"/>
  <path d="m96.6,102.16c-2.75,3.17-4.91,6.85-6.32,10.9,8.97,6.87,17.54,14.35,25.79,22.12l4.66-5.08,4.67-5.09c-9.21-8.07-18.74-15.78-28.8-22.85Z"/>
  <path class="cls-21" d="m166.45,123.97c0,24.72-20.04,44.76-44.76,44.76s-44.75-20.04-44.75-44.76,20.04-44.75,44.75-44.75,44.76,20.04,44.76,44.75Z"/>
  <text class="cls-14" transform="translate(89.31 148.29) rotate(-121.35)"><tspan x="0" y="0">C</tspan></text>
  <text class="cls-14" transform="translate(85.21 141.54) rotate(-110.33)"><tspan x="0" y="0">E</tspan></text>
  <text class="cls-14" transform="translate(82.52 134.35) rotate(-99.14)"><tspan x="0" y="0">O</tspan></text>
  <text class="cls-14" transform="translate(81.26 126.36) rotate(-87.87)"><tspan x="0" y="0">S</tspan></text>
  <text class="cls-14" transform="translate(81.71 118.61) rotate(-80.46)"><tspan x="0" y="0"> </tspan></text>
  <text class="cls-14" transform="translate(81.98 115.89) rotate(-72.56)"><tspan x="0" y="0">A</tspan></text>
  <text class="cls-14" transform="translate(84.46 107.91) rotate(-60.46)"><tspan x="0" y="0">N</tspan></text>
  <text class="cls-14" transform="translate(88.73 100.39) rotate(-48.33)"><tspan x="0" y="0">A</tspan></text>
  <text class="cls-14" transform="translate(94.37 94.13) rotate(-37.12)"><tspan x="0" y="0">L</tspan></text>
  <text class="cls-14" transform="translate(99.86 89.9) rotate(-27.08)"><tspan x="0" y="0">Y</tspan></text>
  <text class="cls-14" transform="translate(106.5 86.48) rotate(-16.57)"><tspan x="0" y="0">S</tspan></text>
  <text class="cls-14" transform="translate(113.98 84.42) rotate(-8.52)"><tspan x="0" y="0">I</tspan></text>
  <text class="cls-14" transform="translate(117.45 83.75) rotate(-.42)"><tspan x="0" y="0">S</tspan></text>
  <text class="cls-14" transform="translate(125.24 83.87) rotate(7.05)"><tspan x="0" y="0"> </tspan></text>
  <text class="cls-14" transform="translate(127.93 84.03) rotate(14.58)"><tspan x="0" y="0">R</tspan></text>
  <text class="cls-14" transform="translate(135.65 86.05) rotate(25.71)"><tspan x="0" y="0">E</tspan></text>
  <text class="cls-14" transform="translate(142.58 89.35) rotate(37.19)"><tspan x="0" y="0">A</tspan></text>
  <text class="cls-14" transform="translate(149.25 94.43) rotate(48.82)"><tspan x="0" y="0">D</tspan></text>
  <text class="cls-14" transform="translate(154.3 100.16) rotate(59.42)"><tspan x="0" y="0">Y</tspan></text>
  <text class="cls-14" transform="translate(158.16 107.03) rotate(66.91)"><tspan x="0" y="0"> </tspan></text>
  <text class="cls-14" transform="translate(159.38 109.45) rotate(74.6)"><tspan x="0" y="0">D</tspan></text>
  <text class="cls-14" transform="translate(161.46 116.76) rotate(85.74)"><tspan x="0" y="0">A</tspan></text>
  <text class="cls-14" transform="translate(162.06 124.18) rotate(95.7)"><tspan x="0" y="0">T</tspan></text>
  <text class="cls-14" transform="translate(161.49 130.93) rotate(105.81)"><tspan x="0" y="0">A</tspan></text>
</svg>